<?xml version="1.0" encoding="UTF-8"?>
<svg id="Layer_2" data-name="Layer 2" xmlns="http://www.w3.org/2000/svg" viewBox="0 0 729.15 140.33">
  <defs>
    <style>
      .cls-1 {
        fill: #ea9999;
      }
    </style>
  </defs>
  <g id="Layer_1-2" data-name="Layer 1">
    <g>
      <path class="cls-1" d="M88.72,61.65c-.17.41-.41.91-.66,1.33-1.83.25-3.57.58-5.31.83-8.05,1.24-16.1,2.41-24.14,3.98-8.38,1.74-16.68,3.73-24.72,6.55-5.31,1.91-10.54,4.07-15.52,6.8-.25.08-.5.17-.66.25-.08,0-.08.08-.25.08-.08-.17-.17-.58-.25-.83-.91-5.56-.08-10.87,3.07-15.6,1.74-2.66,3.9-5.06,6.22-7.22,4.31-3.98,9.13-7.22,14.19-10.12,5.14-2.9,10.54-5.39,15.93-7.8,8.96-3.9,18.09-7.22,27.38-10.29,6.72-2.24,13.36-4.56,19.91-7.3,2.32-1,4.65-1.99,6.89-3.32.25-.08,1-.5,1.24-.66l-.66,1.33c-3.57,6.55-7.05,13.19-10.45,19.91-1.24,2.41-2.65,4.81-3.98,7.22-2.74,4.98-5.48,9.96-8.21,14.85ZM86.89,65.21c-.58,1-1.16,2.07-1.66,3.07-3.24,5.97-6.39,12.03-9.79,17.84-3.48,5.97-7.22,11.86-11.28,17.42-3.4,4.48-7.05,8.79-11.12,12.78-4.15,4.23-8.88,7.8-14.02,10.7-3.07,1.66-6.31,2.99-9.71,3.82-4.15.91-8.3,1.08-12.45.17-6.89-1.58-11.28-5.72-13.86-12.2-.75-1.99-1.16-4.15-1.41-6.31-.33-2.41-.41-4.73-.08-7.14.5-3.65,1.49-7.14,3.15-10.37,1.08-2.07,2.49-3.82,4.07-5.48,1.99-2.07,4.23-3.82,6.64-5.31.17-.17.33-.25.66-.41.17.58.33.91.5,1.33,2.24,5.39,7.55,9.62,13.19,10.45,1.66.25,3.32.17,4.9-.41,1.99-.66,3.57-1.99,4.23-4.15.08-.33.17-.83.08-1.24,0-.66-.58-1.24-1.24-1.24-.66-.08-1.24.41-1.41,1.16v.66c-.08,1.33-.75,2.16-1.91,2.74-1.49.66-3.07.75-4.65.5-1.66-.25-3.24-.75-4.65-1.58-3.15-1.83-5.39-4.4-6.89-7.72l-.5-1.49c.41-.25,1.08-.58,1.49-.83,5.48-2.82,11.12-5.14,16.93-7.05,7.14-2.32,14.35-4.15,21.66-5.56,6.47-1.33,13.03-2.41,19.58-3.32,2.9-.5,5.89-.91,8.79-1.41.25,0,.83-.08,1.08-.08-.17.25-.25.41-.33.66ZM123.9,4.31c.41-.33.91-.66,1.41-1,.08-.08.17-.08.41-.08,0,.25,0,.5-.08.66-.41.83-.91,1.66-1.41,2.41-1.16,1.74-2.66,3.32-4.31,4.73-.75.66-1.74,1.58-2.74,2.16,1.74-3.24,3.9-6.39,6.72-8.88ZM172.35.33c-.66-.33-1.33-.41-1.99-.25-1.41.25-2.74.91-3.9,1.74-1.91,1.33-3.73,2.82-5.48,4.4-3.48,3.32-6.8,6.8-9.96,10.45-6.14,7.14-11.78,14.77-16.84,22.73-3.82,6.06-7.38,12.2-10.7,18.59-.25.41-.5.83-.75,1.33-5.31.33-10.62.41-15.85,1.08-5.23.66-10.7,1.41-15.93,2.07.17-.5.33-.75.5-1.08,1.41-2.66,2.82-5.31,4.23-7.97,3.07-5.56,6.14-11.03,9.04-16.68,3.32-6.47,6.72-12.94,10.04-19.41.41-.75,1-1.33,1.66-1.83,1.83-1.49,3.65-2.9,5.48-4.48,1.58-1.33,2.99-2.9,4.15-4.65.58-.75,1.08-1.58,1.24-2.57.17-.5.17-1.08-.08-1.58-.25-.58-.66-.91-1.24-.83-.41.08-.91.25-1.33.5-1.16.58-2.16,1.41-3.07,2.32-1.74,1.74-3.32,3.73-4.65,5.89-1.08,1.66-2.07,3.32-3.07,5.06-.33.58-.83,1.08-1.41,1.41-3.24,1.83-6.55,3.57-9.96,4.9-3.32,1.33-6.64,2.66-10.04,3.9-5.48,1.91-11.03,3.82-16.59,5.72-9.46,3.24-18.75,6.97-27.79,11.37-5.23,2.49-10.37,5.23-15.18,8.55-3.4,2.41-6.64,4.98-9.54,7.97-1.91,1.99-3.65,4.15-5.14,6.47-2.57,4.4-3.57,9.21-2.9,14.27.08.91.25,1.91.41,2.9-.41.25-.75.5-1.08.66-1.74,1.16-3.4,2.41-4.9,3.73-3.9,3.32-6.64,7.47-8.13,12.36-1,3.48-1.74,6.97-1.58,10.62,0,1.08.08,2.24.25,3.4.33,2.32.83,4.65,1.74,6.89,2.74,6.47,7.38,10.79,14.27,12.45,4.4,1.08,8.79,1,13.28.08,3.98-.91,7.8-2.49,11.37-4.48,5.23-2.9,9.79-6.55,14.02-10.7,4.81-4.73,9.04-9.96,12.94-15.35,4.65-6.47,8.71-13.28,12.53-20.24,2.99-5.48,5.89-11.03,8.88-16.59.17-.41.41-.91.75-1.41,10.54-1.66,21.16-3.15,31.94-3.4-.08.33-.25.58-.33.75-2.82,5.48-5.31,11.12-7.88,16.76-1.91,4.15-3.73,8.3-5.48,12.53-1.08,2.41-1.91,4.9-2.57,7.47-.66,2.41-1.08,4.9-.91,7.47.08.75.17,1.49.33,2.24.66,2.07,2.49,3.15,4.73,2.9.91-.17,1.74-.41,2.57-.83,2.07-1,3.98-2.24,5.72-3.73.91-.91,1.83-1.83,2.82-2.66,1.83-1.74,3.07-3.9,4.4-5.97.17-.17.25-.41.25-.66,0-.17-.08-.33-.25-.41-.08,0-.33,0-.41.08-.25.25-.33.5-.5.75-1.74,2.49-3.73,4.73-5.89,6.89-1.74,1.66-3.57,3.07-5.72,4.15-.66.33-1.24.58-1.91.83-.75.25-1.49.33-2.32.17-.83-.17-1.41-.58-1.74-1.41-.25-.58-.33-1.24-.33-1.83-.08-1.91.25-3.65.66-5.48.83-3.24,1.99-6.31,3.32-9.38,2.49-5.72,5.06-11.45,7.63-17.17,1.99-4.4,4.48-9.46,6.72-13.77h.91c2.99-.25,6.06-.75,9.04-1.33,3.24-.58,6.39-1.66,9.46-3.07,2.49-1.16,4.56-2.82,6.22-5.06.25-.41.5-.91.66-1.33.25-.5-.17-1-.66-1.08-.91-.17-1.91.58-1.83,1.49.08.58-.17.91-.5,1.33-1.33,1.41-2.82,2.66-4.56,3.48-2.24,1-4.48,1.91-6.8,2.49-3.4.91-6.89,1.33-10.29,1.74-.25,0-.58.08-.91.08.08-.41.25-.66.41-.91.5-1.08,1.08-2.07,1.66-3.15,5.97-10.7,12.61-20.99,20.16-30.7,4.48-5.81,9.21-11.37,14.44-16.59,1.58-1.49,3.24-2.99,4.98-4.23.5-.41,1.08-.75,1.66-1.08.5-.25,1.08-.33,1.58-.41.41-.08.66.17.58.58,0,.25-.08.41-.08.66-.08.66.25,1.16.75,1.41.58.17,1.16-.08,1.58-.66.91-1.24.41-3.07-1-3.65Z"/>
      <path class="cls-1" d="M156.47,53.76c1.58-1,5.72-4.23,7.05-5.31-.08.33-.08,1-.08,1.99,0,1.33,0,3.73.83,3.73.25,0,1.16-.33,1.16-.5,0-.5-.25-1.83-.25-3.24v-3.07c0-.17-.41-.58-.75-.58-.83,0-.58.83-1.08,1.33-1.41,1.41-5.56,4.4-7.05,5.14-.33.25-.25.75.17.5ZM155.81,64.8c-.08.25-.33.41-.5.58-1.08.66-2.07,1.33-3.15,1.91-.5.33-1.16.41-1.74.5-.25.08-.5,0-.75-.08-.17-.58.08-1.08.33-1.58,1.41-2.74,3.57-4.65,6.64-5.48.33-.08.66-.08,1-.08.5,0,.75.58.41,1-.83,1-1.58,2.07-2.24,3.24ZM181.94,61.81c-.17,0-.41,0-.66.08-.41.25-.83.5-1.24.75-2.32,1.49-4.65,2.99-6.97,4.56-1.83,1.16-3.82,2.16-5.89,2.9-1.91.75-3.82,1.08-5.81,1-.58,0-1.08-.08-1.58-.25-1-.33-1.66-1-1.91-2.07-.25-.91-.08-1.74.41-2.49.75-1.16,1.49-2.24,2.24-3.24,1-1.16,1.99-2.32,2.99-3.4.17-.25.41-.5.58-.75.25-.33.25-.75,0-1.08-.25-.41-.58-.58-1-.5-.41.08-.91.25-1.24.5-.5.41-1,.91-1.49,1.33-.25.17-.41.33-.75.58-1.08-1.49-2.49-1.49-4.07-1.24-.41.08-.83.17-1.24.33-.75.33-1.49.58-2.16,1-1.83,1-3.32,2.41-4.4,4.07-.75,1.16-1.16,2.32-1.08,3.65.08,1.74,1.16,2.65,2.82,2.57.83,0,1.66-.25,2.41-.66.75-.5,1.49-1,2.16-1.49.33-.17.58-.41.91-.58.17.66.25,1.24.41,1.74.58,2.07,1.91,3.4,4.07,3.9,1.58.33,3.07.08,4.56-.17,3.15-.66,6.06-2.07,8.71-3.82,2.74-1.74,5.56-3.57,8.3-5.39.33-.25.66-.5.91-.75.17-.08.25-.25.33-.41.08-.25-.08-.58-.33-.66Z"/>
      <path class="cls-1" d="M223.12,62.31c-.17-.33-.41-.5-.75-.41-.41.17-.83.25-1.24.5-.58.33-1.08.75-1.66,1.16-2.07,1.58-4.15,3.15-6.31,4.73-2.32,1.66-4.65,3.15-7.3,4.23-1.83.75-3.65,1.41-5.56,1.66-3.15.33-5.14-1-5.97-3.82-.25-1.08-.33-2.07-.25-3.15,0-.91.17-1.83.17-2.74.08-.66.17-1.24.08-1.91-.08-1.33-1.16-1.83-2.32-1.33-.33.17-.58.33-.83.5-.33.25-.75.5-1.08.75-3.32,2.49-6.55,5.14-9.62,7.88-.83.75-1.66,1.41-2.49,2.16-.17.08-.25.25-.5,0,.41-.58.75-1.24,1.24-1.83,1.83-2.24,3.65-4.48,5.56-6.72.5-.66,1.08-1.33,1.58-2.07.33-.33.5-.75.66-1.16.25-.91-.08-1.74-.75-2.24-.66-.33-1.58-.25-2.24.33-.17.17-.41.33-.58.58-.41.5-.91,1.08-1.24,1.66-1.16,1.83-2.32,3.65-3.48,5.48-.66,1.24-1.24,2.49-1.83,3.82-.25.75-.5,1.49-.66,2.24-.08.41-.08.83,0,1.16.17.66.66.91,1.24.75.5-.25,1-.5,1.49-.91.58-.41,1.16-1,1.74-1.49,3.07-2.74,6.31-5.31,9.71-7.55.41-.25.83-.58,1.41-.66-.08.66-.17,1.24-.25,1.83-.17,2.66.5,4.98,1.99,7.14,1.24,1.83,2.9,2.74,5.14,2.74s4.4-.41,6.47-1.16c2.57-.91,4.9-2.16,7.14-3.65,2.9-1.83,5.72-3.73,8.55-5.56l1.99-1.49c.25-.25.5-.41.66-.66.17-.25.25-.5.08-.75Z"/>
      <path class="cls-1" d="M312.94,16.18c-.25,1.16-.66,2.16-1.16,3.24-.83,1.83-1.91,3.57-3.15,5.23-3.65,5.06-7.97,9.46-12.78,13.52-9.13,7.63-19.41,13.03-30.78,16.43-.75.25-1.58.41-2.32.66-.25,0-.75.17-1.16.17.17-.33.41-.58.58-.75,5.39-7.14,10.62-14.35,16.43-21.07,5.56-6.47,11.78-12.28,18.75-17.26,1.99-1.41,4.15-2.74,6.39-3.82,1.16-.5,2.32-1,3.57-1.33.91-.25,1.91-.33,2.9-.17,1.24.17,2.16.91,2.57,2.16.33,1,.33,1.99.17,2.99ZM314.1,13.52c-.41-2.16-1.91-3.57-4.15-3.82-.41-.08-.91-.08-1.41,0-1.49,0-2.9.41-4.23.91-2.49,1-4.73,2.24-6.89,3.65-4.65,2.99-9.04,6.39-13.03,10.12-5.72,5.39-10.95,11.2-15.93,17.26-3.48,4.23-6.72,8.71-9.96,13.19l-2.32,3.24c-.17.33-.41.66-.66,1-3.07,4.4-6.14,8.88-8.96,13.52-.91,1.41-1.66,2.82-2.49,4.23-.25.41-.41,1-.58,1.49-.17.41,0,.83.41,1.16.33.33.83.33,1.24.08.25-.08.5-.25.75-.41.5-.41,1-.83,1.49-1.16,2.9-2.32,5.81-4.65,8.71-6.89,1.49-1.16,2.99-2.16,4.56-3.24.33-.25.66-.5,1.24-.5,0,.5-.08,1-.08,1.58-.17,1.58.08,3.24.66,4.81.83,2.16,2.49,3.57,4.81,4.07,1,.25,1.99.25,2.99.08,2.9-.41,5.64-1.16,8.13-2.57,2.49-1.33,4.81-2.82,7.05-4.48,2.16-1.66,4.31-3.4,6.47-5.06.66-.5,1.33-1.08,1.91-1.58.33-.33.66-.66.91-1,.17-.25.25-.58,0-.83-.25-.33-.58-.33-.91-.17s-.66.41-1,.66c-.5.33-1,.83-1.49,1.24-1.91,1.58-3.73,3.24-5.64,4.81-3.15,2.66-6.55,4.73-10.37,6.22-1.33.58-2.65,1-4.07,1.16-1.16.17-2.32.17-3.4-.17-1.49-.5-2.57-1.41-2.99-2.9-.17-.5-.25-1-.33-1.49-.17-1.16-.17-2.32-.08-3.57.08-.66.08-1.41,0-2.07-.25-1.24-1.33-1.74-2.49-1.16-.5.25-1,.58-1.41.91-1.24.83-2.41,1.74-3.65,2.66-2.49,1.99-5.06,3.9-7.63,5.89-.25.08-.66.5-1.08.75.17-.33.75-1.24,1-1.58,2.07-3.07,4.23-6.14,6.31-9.21,1.49-2.24,2.99-4.48,4.48-6.72.33-.5.58-.75.58-.75.25-.08,1.24-.25,1.41-.33,6.39-1.49,12.36-3.82,18.17-6.72,5.97-3.07,11.37-6.89,16.43-11.12,4.15-3.4,7.97-7.14,11.28-11.28,1.66-2.07,3.15-4.15,4.48-6.47.66-1.33,1.24-2.66,1.58-4.15.25-1.08.33-2.16.17-3.32Z"/>
      <path class="cls-1" d="M299.52,64.88c-.08.25-.33.41-.5.58-1.08.66-2.07,1.33-3.15,1.91-.5.33-1.16.41-1.74.5-.25.08-.5,0-.75-.08-.17-.58.08-1.08.33-1.58,1.41-2.74,3.57-4.65,6.64-5.48.33-.08.66-.08,1-.08.5,0,.75.58.41,1-.83,1-1.58,2.07-2.24,3.24ZM325.66,61.9c-.17,0-.41,0-.66.08-.41.25-.83.5-1.24.75-2.32,1.49-4.65,2.99-6.97,4.56-1.83,1.16-3.82,2.16-5.89,2.9-1.91.75-3.82,1.08-5.81,1-.58,0-1.08-.08-1.58-.25-1-.33-1.58-1-1.91-2.07-.25-.91-.08-1.74.41-2.49.75-1.16,1.49-2.24,2.32-3.24.91-1.16,1.91-2.32,2.9-3.4.17-.25.41-.5.58-.75.25-.33.25-.75,0-1.08-.25-.41-.58-.58-1-.5-.41.08-.91.25-1.24.5-.5.41-1,.91-1.49,1.33-.17.17-.41.33-.75.58-1.08-1.49-2.49-1.49-4.07-1.24-.41.08-.83.17-1.24.33-.75.33-1.49.58-2.16,1-1.83,1-3.32,2.41-4.4,4.07-.75,1.16-1.16,2.32-1.08,3.65.08,1.74,1.16,2.66,2.82,2.57.83,0,1.66-.25,2.41-.66.75-.5,1.49-1,2.16-1.49.33-.17.58-.41.91-.58.17.66.25,1.24.41,1.74.58,2.07,1.91,3.4,4.07,3.9,1.58.33,3.07.08,4.56-.17,3.15-.66,6.06-2.07,8.71-3.82,2.74-1.74,5.56-3.57,8.3-5.39.33-.25.66-.5.91-.75.17-.08.25-.25.33-.41.08-.25-.08-.58-.33-.66Z"/>
      <path class="cls-1" d="M367.42,62.31c-.17-.33-.41-.5-.75-.41-.41.17-.83.25-1.24.5-.58.33-1.08.75-1.66,1.16-2.07,1.58-4.15,3.15-6.31,4.73-2.32,1.66-4.65,3.15-7.3,4.23-1.83.75-3.65,1.41-5.56,1.66-3.15.33-5.14-1-5.97-3.82-.25-1.08-.33-2.07-.25-3.15,0-.91.17-1.83.17-2.74.08-.66.17-1.24.08-1.91-.08-1.33-1.16-1.83-2.32-1.33-.33.17-.58.33-.83.5-.33.25-.75.5-1.08.75-3.32,2.49-6.55,5.14-9.62,7.88-.83.75-1.66,1.41-2.49,2.16-.17.08-.25.25-.5,0,.41-.58.75-1.24,1.24-1.83,1.83-2.24,3.65-4.48,5.56-6.72.5-.66,1.08-1.33,1.58-2.07.33-.33.5-.75.66-1.16.25-.91-.08-1.74-.75-2.24-.66-.33-1.58-.25-2.24.33-.17.17-.41.33-.58.58-.41.5-.91,1.08-1.24,1.66-1.16,1.83-2.32,3.65-3.48,5.48-.66,1.24-1.24,2.49-1.83,3.82-.25.75-.5,1.49-.66,2.24-.08.41-.08.83,0,1.16.17.66.66.91,1.24.75.5-.25,1-.5,1.49-.91.58-.41,1.16-1,1.74-1.49,3.07-2.74,6.31-5.31,9.71-7.55.41-.25.83-.58,1.41-.66-.08.66-.17,1.24-.25,1.83-.17,2.66.5,4.98,1.99,7.14,1.24,1.83,2.9,2.74,5.14,2.74s4.4-.41,6.47-1.16c2.57-.91,4.9-2.16,7.14-3.65,2.9-1.83,5.72-3.73,8.55-5.56l1.99-1.49c.25-.25.5-.41.66-.66.17-.25.25-.5.08-.75Z"/>
      <path class="cls-1" d="M424.77,16.18c-.25,1.16-.66,2.16-1.16,3.24-.83,1.83-1.91,3.57-3.15,5.23-3.65,5.06-7.97,9.46-12.78,13.52-9.13,7.63-19.41,13.03-30.78,16.43-.75.25-1.58.41-2.32.66-.25,0-.75.17-1.16.17.17-.33.41-.58.58-.75,5.39-7.14,10.62-14.35,16.43-21.07,5.56-6.47,11.78-12.28,18.75-17.26,1.99-1.41,4.15-2.74,6.39-3.82,1.16-.5,2.32-1,3.57-1.33.91-.25,1.91-.33,2.9-.17,1.24.17,2.16.91,2.57,2.16.33,1,.33,1.99.17,2.99ZM425.93,13.52c-.41-2.16-1.91-3.57-4.15-3.82-.41-.08-.91-.08-1.41,0-1.49,0-2.9.41-4.23.91-2.49,1-4.73,2.24-6.89,3.65-4.65,2.99-9.04,6.39-13.03,10.12-5.72,5.39-10.95,11.2-15.93,17.26-3.48,4.23-6.72,8.71-9.96,13.19l-2.32,3.24c-.17.33-.41.66-.66,1-3.07,4.4-6.14,8.88-8.96,13.52-.91,1.41-1.66,2.82-2.49,4.23-.25.41-.41,1-.58,1.49-.17.41,0,.83.41,1.16.33.33.83.33,1.24.08.25-.08.5-.25.75-.41.5-.41,1-.83,1.49-1.16,2.9-2.32,5.81-4.65,8.71-6.89,1.49-1.16,2.99-2.16,4.56-3.24.33-.25.66-.5,1.24-.5,0,.5-.08,1-.08,1.58-.17,1.58.08,3.24.66,4.81.83,2.16,2.49,3.57,4.81,4.07,1,.25,1.99.25,2.99.08,2.9-.41,5.64-1.16,8.13-2.57,2.49-1.33,4.81-2.82,7.05-4.48,2.16-1.66,4.31-3.4,6.47-5.06.66-.5,1.33-1.08,1.91-1.58.33-.33.66-.66.91-1,.17-.25.25-.58,0-.83-.25-.33-.58-.33-.91-.17s-.66.41-1,.66c-.5.33-1,.83-1.49,1.24-1.91,1.58-3.73,3.24-5.64,4.81-3.15,2.66-6.55,4.73-10.37,6.22-1.33.58-2.65,1-4.07,1.16-1.16.17-2.32.17-3.4-.17-1.49-.5-2.57-1.41-2.99-2.9-.17-.5-.25-1-.33-1.49-.17-1.16-.17-2.32-.08-3.57.08-.66.08-1.41,0-2.07-.25-1.24-1.33-1.74-2.49-1.16-.5.25-1,.58-1.41.91-1.24.83-2.41,1.74-3.65,2.66-2.49,1.99-5.06,3.9-7.63,5.89-.25.08-.66.5-1.08.75.17-.33.75-1.24,1-1.58,2.07-3.07,4.23-6.14,6.31-9.21,1.49-2.24,2.99-4.48,4.48-6.72.33-.5.58-.75.58-.75.25-.08,1.24-.25,1.41-.33,6.39-1.49,12.36-3.82,18.17-6.72,5.97-3.07,11.37-6.89,16.43-11.12,4.15-3.4,7.97-7.14,11.28-11.28,1.66-2.07,3.15-4.15,4.48-6.47.66-1.33,1.24-2.66,1.58-4.15.25-1.08.33-2.16.17-3.32Z"/>
      <path class="cls-1" d="M463.31,51.11c-2.82,2.16-5.72,4.23-8.55,6.31-.25.17-1.08.75-1.33.91,0,0,.25-.5.33-.66.25-.33.5-.58.75-1,1.66-2.32,3.4-4.65,5.14-6.89,1.74,0,3.65-.08,5.56-.17-.66.5-1.33,1-1.91,1.49ZM464.06,44.39c5.06-6.06,10.29-11.86,15.6-17.59,3.24-3.48,6.64-6.64,10.37-9.46,1.33-1,2.66-1.99,4.07-2.65.66-.33,1.24-.5,1.91-.75.17,0,.41,0,.66.08l.17.17c.17.58-.08,1.08-.33,1.58-.5,1-1,1.99-1.58,2.9-1.49,2.32-3.15,4.48-4.9,6.64-6.89,8.71-14.85,16.35-23.48,23.23-1.99.08-4.07.17-6.06.25,1.16-1.49,2.41-2.99,3.57-4.4ZM443.32,66.96c-1.74,1.49-3.57,2.99-5.48,4.4-.66.5-1.41.91-2.24,1.24-.58.25-1.16.5-1.83.08-.25-.58-.17-1.16,0-1.74.25-.58.5-1.24.83-1.74,1.74-3.07,3.98-5.72,6.89-7.8.5-.41,1-.66,1.66-1,.33-.17.83,0,1.08.33.41.41.75,1,.83,1.66v.33c.17,2.41.17,2.66-1.74,4.23ZM501.48,47.04l-.08-.17h-.08c-.25,0-.75.08-1.49.17-1.16.17-2.82.33-4.56.41-1.24.08-13.03.5-26.72,1,2.65-2.16,5.39-4.48,7.97-6.8,6.14-5.64,11.78-11.7,16.84-18.34,1.16-1.58,2.32-3.24,3.4-4.98.58-.83.91-1.83,1.33-2.74.17-.41.25-.83.25-1.33,0-1.08-.66-1.83-1.83-1.91-.58,0-1.24.08-1.74.25-.91.25-1.74.66-2.57,1.08-2.41,1.24-4.65,2.74-6.72,4.48-3.48,2.9-6.72,5.97-9.79,9.21-3.15,3.24-6.14,6.47-9.13,9.79-3.48,3.73-6.8,7.72-9.87,11.78-16.51.58-32.36,1.16-33.19,1.16h-1.08c-1.91-.08-2.16-.08-2.16.25-.08.33,0,.58.17.75.17.08.41.17.66.17h.08c2.82-.17,17.51-.83,22.73-1,1.83,0,6.31-.17,12.03-.33-.83,1.16-1.66,2.32-2.49,3.48-2.16,3.15-4.23,6.31-6.31,9.46-.17.25-.33.5-.66,1.08-.08-.33-.08-1.24-.08-1.58,0-.66-.17-1.33-.41-1.91-.66-1.33-1.58-1.99-3.07-1.91-1,.08-1.91.41-2.74.91-3.48,1.99-6.14,4.81-7.72,8.46-.33.83-.58,1.74-.83,2.66-.17.75-.08,1.49.17,2.24.41,1,1.16,1.49,2.24,1.58.66,0,1.33-.17,1.91-.5.83-.5,1.66-.91,2.49-1.49,1.58-1.33,3.15-2.66,4.81-3.98.25-.25.83-.75,1.24-1-.25.41-.33.58-.33.58-.17.33-.33.75-.5,1.08-1.24,2.66-2.32,5.31-2.99,8.21-.41,1.99-.58,4.07-.08,6.14.75,3.57,3.4,6.31,7.88,5.81,1.49-.25,2.9-.66,4.31-1.24,2.41-1,4.65-2.16,6.89-3.4,5.14-3.07,10.12-6.39,15.02-9.87,4.07-2.9,8.05-5.81,12.11-8.79,1-.66,1.99-1.41,2.99-2.16l.75-.75c.17-.17.33-.41.08-.75-.17-.25-.41-.25-.66-.17-.33.08-.58.25-.83.41-.66.41-1.33.83-1.99,1.33-2.41,1.74-4.73,3.57-7.05,5.31-5.64,4.4-11.53,8.38-17.51,12.2-2.57,1.66-5.31,3.15-8.13,4.48-1.33.58-2.74,1.24-4.15,1.58-.83.17-1.66.33-2.49.33-2.66.08-4.48-1.33-5.14-3.9-.17-.58-.25-1.24-.25-1.91-.08-1.66.17-3.24.66-4.81.66-2.41,1.66-4.65,2.82-6.89,1.58-2.9,3.32-5.72,5.14-8.46.33-.5.75-.91,1.16-1.24,1.58-1.08,3.15-2.24,4.73-3.32,3.57-2.49,6.97-5.06,10.29-7.72,10.54-.41,21.74-.83,27.96-1.08,2.9-.08,4.9-.17,5.31-.17.33-.08.66-.17.83-.41.17-.25.25-.58.17-.83Z"/>
      <path class="cls-1" d="M496.73,63.89s0,.08-.08.25c-1.41-.58-2.74-1.41-3.73-2.41-1-1.08-1.58-2.24-1.49-3.73,0-.41.08-.75.25-1.16.75-2.16,3.32-2.57,4.73-.75.58.66.91,1.49,1.08,2.41.25,1.83,0,3.65-.75,5.39ZM496.06,65.71c-.83,1.83-1.91,3.48-3.32,5.06-.83.83-1.74,1.58-2.82,2.16-.66.25-1.33.5-1.99.41-1,0-1.41-.41-1.41-1.33,0-.58.08-1.16.33-1.74.33-.75.75-1.58,1.24-2.32.75-1.08,1.58-2.07,2.32-3.15.58-.75,1.24-1.49,1.41-2.57.58.33,1,.75,1.41,1.08.5.33,1,.66,1.49.91.41.33,1.08.58,1.66.83-.08.25-.25.41-.33.66ZM513.9,62.31c-.25-.25-.5-.17-.75-.08-2.49,1-5.06,1.66-7.63,2.24-2.32.58-4.65.58-6.97.17-.17,0-.41-.08-.66-.17.08-.33.17-.75.25-1,.33-1.08.5-2.07.58-3.15.08-1.33-.17-2.65-.75-3.9-.5-1.08-1.33-1.83-2.41-2.24-1.91-.75-3.73-.08-4.65,1.74-.58,1.08-.75,2.32-.41,3.57.17.41.25.83.41,1.24-1.74.41-1.41.17-2.65,1.58-1.33,1.41-2.32,2.99-3.07,4.73-.33.83-.58,1.66-.83,2.57-.17,1-.17,2.07.17,3.15.5,1.33,1.49,2.16,2.9,2.24,1.08.08,2.16-.25,3.07-.75,1-.58,1.83-1.33,2.66-2.16,1.49-1.66,2.82-3.57,3.82-5.56.17-.33.33-.66.58-1.08.33,0,.5.08.66.08,2.24.41,4.56.5,6.8,0,2.41-.5,4.73-1.16,7.05-1.83.5-.17,1-.41,1.41-.66.41-.17.58-.58.41-.75ZM493.91,53.1c1.24-.66,2.74-1.16,3.65-1.49,3.4-1.08,5.31-1.41,6.22-1.66.41-.17.66-.66.75-1.16.17-.58-.08-1.33-.5-1.41-.41-.08-.66.08-1.24.33-4.81,2.24-7.88,4.31-8.88,4.9-.58.33-.17.58,0,.5Z"/>
      <path class="cls-1" d="M555,62.31c-.17-.33-.41-.5-.75-.41-.41.17-.83.25-1.24.5-.58.33-1.08.75-1.66,1.16-2.07,1.58-4.15,3.15-6.31,4.73-2.32,1.66-4.65,3.15-7.3,4.23-1.83.75-3.65,1.41-5.56,1.66-3.15.33-5.14-1-5.97-3.82-.25-1.08-.33-2.07-.25-3.15,0-.91.17-1.83.17-2.74.08-.66.17-1.24.08-1.91-.08-1.33-1.16-1.83-2.32-1.33-.33.17-.58.33-.83.5-.33.25-.75.5-1.08.75-3.32,2.49-6.55,5.14-9.62,7.88-.83.75-1.66,1.41-2.49,2.16-.17.08-.25.25-.5,0,.41-.58.75-1.24,1.24-1.83,1.83-2.24,3.65-4.48,5.56-6.72.5-.66,1.08-1.33,1.58-2.07.33-.33.5-.75.66-1.16.25-.91-.08-1.74-.75-2.24-.66-.33-1.58-.25-2.24.33-.17.17-.41.33-.58.58-.41.5-.91,1.08-1.24,1.66-1.16,1.83-2.32,3.65-3.48,5.48-.66,1.24-1.24,2.49-1.83,3.82-.25.75-.5,1.49-.66,2.24-.08.41-.08.83,0,1.16.17.66.66.91,1.24.75.5-.25,1-.5,1.49-.91.58-.41,1.16-1,1.74-1.49,3.07-2.74,6.31-5.31,9.71-7.55.41-.25.83-.58,1.41-.66-.08.66-.17,1.24-.25,1.83-.17,2.66.5,4.98,1.99,7.14,1.24,1.83,2.9,2.74,5.14,2.74s4.4-.41,6.47-1.16c2.57-.91,4.9-2.16,7.14-3.65,2.9-1.83,5.72-3.73,8.55-5.56l1.99-1.49c.25-.25.5-.41.66-.66.17-.25.25-.5.08-.75Z"/>
      <path class="cls-1" d="M663.99,26.14c-1.49-1.16-3.07-2.07-4.9-2.57-2.41-.75-4.9-1.24-7.38-1.66-3.48-.5-6.97-.75-10.54-.83-6.64-.33-13.28.25-19.91,1.24-1.49.25-2.99.5-4.48.75.08-.08.17-.25.25-.33,3.57-3.9,7.3-7.8,11.37-11.2.91-.75,1.66-1.49,2.49-2.24.5-.5,1-1,1.41-1.58.25-.41.41-.83.5-1.33.25-.91-.17-1.41-1.16-1.58-.58-.08-1.08.08-1.66.33-.66.33-1.33.66-1.91,1.08-1.49,1.08-2.82,2.32-4.07,3.65-4.48,4.48-8.63,9.21-12.69,14.1l-1,.17c-5.64,1-11.28,1.83-17.01,2.16-2.99.17-5.97.17-8.96-.17-1.41-.17-2.74-.41-4.07-.83-.58-.17-1.16-.41-1.49-.91-.5-.58-.5-1,.08-1.49.41-.33.83-.66,1.16-1.08.5-.58.58-1.33.25-2.07-.41-.75-1.16-1.16-1.99-1.08-.58,0-1,.25-1.41.66-.41.33-.75.83-.91,1.41-.66,2.16.33,4.56,2.32,5.64.58.25,1.16.41,1.74.58,1.99.5,3.98.75,6.06.75,3.98.17,7.97-.08,11.86-.58,3.57-.41,7.05-1,10.62-1.58.58-.08,1.16-.17,1.66-.33-.33.5-.75,1-1.16,1.49-4.73,5.64-9.13,11.62-13.11,17.84-.83,1.33-1.74,2.57-2.57,3.9-3.48,5.31-6.64,10.79-9.46,16.51-2.41,4.98-4.4,10.04-5.56,15.43-.58,2.82-1,5.72-1.08,9.04,0,.66.08,1.83.25,2.9.17,1.24.5,2.49,1.24,3.57,1.16,1.66,2.9,2.32,4.81,1.83.66-.25,1.41-.5,1.99-.83.83-.41,1.58-.91,2.32-1.49,1.08-.83,2.16-1.66,3.24-2.57,3.82-3.24,7.47-6.72,10.87-10.37,1.33-1.33,2.57-2.74,3.9-3.98,4.56-4.31,9.13-8.55,13.69-12.86.83-.75,1.66-1.33,2.49-2.07.17-.08.33-.25.41-.41.25-.25.17-.66-.17-.83-.25-.08-.58-.08-.83,0-.66.17-1.16.58-1.58,1-1.41,1.24-2.82,2.57-4.15,3.9-6.06,5.97-12.03,11.86-18,17.92-2.74,2.74-5.64,5.31-8.71,7.72-1.16.83-2.41,1.66-3.65,2.41-.75.5-1.58.83-2.41,1-1.16.17-1.99-.25-2.66-1.16-.41-.58-.66-1.33-.75-1.99-.08-1.08-.25-2.07-.17-3.15.08-2.49.5-4.9,1.08-7.3,1.41-5.31,3.4-10.37,5.81-15.35,2.24-4.48,4.73-8.88,7.3-13.19,3.73-5.97,7.63-11.78,11.86-17.42,3.15-4.23,6.55-8.38,10.12-12.36,3.32-.5,6.64-1.08,10.04-1.41,2.32-.33,4.65-.58,6.97-.66,3.07-.08,6.22-.08,9.29,0,3.9.17,7.8.5,11.7,1.24,2.16.5,4.31,1.08,6.39,1.99,1.33.58,2.41,1.41,3.24,2.66.33.5.58,1.08.33,1.74-.33.25-.66.5-.91.75-.33.5-.41,1-.08,1.49.25.5.66.66,1.16.75.91,0,1.66-.5,1.91-1.41.58-2.16-.25-4.23-1.66-5.31Z"/>
      <path class="cls-1" d="M627.46,56.83c.91,0,1.66-.75,1.74-1.66,0-.91-.75-1.66-1.66-1.66s-1.58.75-1.66,1.58c-.08.91.66,1.74,1.58,1.74ZM640.32,62.48c-.5.25-.83.5-1.24.83-2.57,1.91-5.23,3.73-8.05,5.31-1.83,1.08-3.73,1.91-5.81,2.41-1.08.25-2.24.33-3.32.08-1.08-.25-1.74-1-1.66-2.16,0-.41.17-.91.33-1.24.33-.91.83-1.66,1.49-2.41,1-1.16,1.99-2.41,2.99-3.65.25-.25.58-.58.66-.91.5-1.16-.33-2.24-1.58-2.07-.33.08-.66.17-.91.41-.41.25-.83.58-1.16.91-1.49,1.66-2.65,3.65-3.4,5.81-.33,1-.41,1.99-.33,3.07.17,1.99,1.24,3.15,3.15,3.65.5.08,1,.17,1.58.17,1.16.08,2.32-.25,3.48-.58,2.99-1,5.81-2.57,8.38-4.48,1.33-.91,2.57-1.91,3.9-2.9.58-.5,1.16-1,1.74-1.41.17-.17.33-.41.75-.83-.58,0-.83-.08-1,0Z"/>
      <path class="cls-1" d="M646.58,59.07c.58-.33,1.16-.5,1.74-.66.33-.08.66-.08,1.08-.08.75.08,1.08.66.58,1.33-.41.41-.83.83-1.24,1.16-.91.58-1.91,1.24-2.82,1.66-1.58.75-3.07,1.41-4.65,2.07-.17,0-.83.33-1,.33,1.49-2.32,3.9-4.48,6.31-5.81ZM665.91,62.06c-.25,0-.5-.08-.66,0-.41.25-.91.5-1.33.75-1.49.91-2.99,1.91-4.56,2.82-2.9,1.83-5.97,3.48-9.04,4.9-2.16,1-4.31,1.83-6.64,2.24-1,.17-2.07.17-3.07-.08-1.74-.5-2.65-1.99-2.24-3.73.17-.75.5-1.49.83-2.24.17-.41.25-.58.25-.58.66-.25,2.07-.75,2.82-1,2.07-.75,4.07-1.66,5.97-2.82.66-.5,1.41-1,2.07-1.58.33-.41.66-.83.91-1.33.33-.83.08-1.58-.66-2.07-.5-.41-1.16-.58-1.83-.66-1.33-.08-2.57.25-3.73.83-3.57,1.91-6.31,4.65-8.05,8.46-.5,1.08-.66,2.24-.58,3.48.08,2.07,1.41,3.73,3.48,4.31.66.17,1.41.25,2.16.33,1.49-.08,2.82-.41,4.15-.83,3.57-1.16,6.89-2.74,10.12-4.65,2.66-1.49,5.31-3.07,7.97-4.65.5-.25,1-.58,1.49-.91.17-.17.25-.33.41-.5.08-.17-.08-.5-.25-.5ZM644.34,55.26c2.16-1.41,7.72-5.72,9.54-7.22-.08.41-.08,1.33-.08,2.66,0,1.83,0,5.14,1.08,5.14.33,0,1.58-.5,1.58-.75,0-.58-.25-2.41-.25-4.4v-4.07c0-.25-.58-.91-1.08-.91-1.08,0-.75,1.16-1.49,1.83-1.91,1.99-7.47,5.97-9.54,7.05-.5.25-.41,1,.25.66Z"/>
      <path class="cls-1" d="M675.06,65.88c-.25,2.07-1.08,3.82-2.16,5.64-.25.33-.58.41-1,.58-1.83.66-3.73,1.33-5.56,1.99-2.82,1-5.64,2.07-8.21,3.65-.08.08-.58.41-.83.75,1.24-2.32,2.74-5.31,4.31-7.3,1.83-2.24,3.73-4.4,6.14-6.14,1.08-.83,2.24-1.58,3.4-2.24.5-.33,1.08-.58,1.66-.75,1-.25,1.66.17,1.99,1.08.41.91.41,1.83.25,2.74ZM671.16,74.09c-2.49,3.32-5.31,6.22-8.71,8.63-1.16.83-2.32,1.58-3.73,1.91-.66.08-1.41.17-2.07.17-1.49-.08-1.99-1.49-1.41-2.49.58-1.08,1.33-2.16,2.41-2.9,1.08-.66,2.24-1.41,3.4-1.99,3.24-1.58,6.64-2.74,10.04-3.9.08,0,.5-.17.75-.17-.17.17-.58.58-.66.75ZM693.9,61.98c-.17,0-.41,0-.58.08-.08.08-.17.17-.33.25-.5.41-1,.91-1.58,1.24-4.56,2.82-9.46,5.23-14.6,6.89-.25.08-.58.25-1,.33.08-.25.25-.66.33-.91.33-1,.75-1.91,1-2.9.33-1.58.33-3.15-.25-4.65-.58-1.74-1.99-2.66-3.9-2.57-.91.08-1.83.33-2.66.75-1,.58-1.91,1.24-2.9,1.83-.25.08-.58.33-1,.58.08-.17.41-.75.58-.91,1.33-1.83,2.66-3.73,4.07-5.56,1.74-2.24,3.82-4.31,6.14-6.14.66-.58,1.33-1.16,2.24-1.41.08,0,.17-.08.33-.17.25-.25.41-.58.33-1-.08-.33-.41-.58-.75-.58-.5,0-.91,0-1.33.17-.58.25-1.16.58-1.74,1-1.33,1.08-2.65,2.16-3.9,3.32-2.24,2.16-4.07,4.56-5.81,7.05-3.07,4.31-5.89,8.79-8.38,13.44-1.99,3.57-3.9,7.22-5.81,10.87-3.15,5.97-6.47,11.86-10.12,17.51-4.07,6.31-8.38,12.45-13.36,18.09-3.73,4.23-7.72,8.21-12.28,11.62-4.07,3.07-8.46,5.39-13.19,7.14-3.48,1.24-6.97,1.83-10.62,1.83-.5,0-1-.08-1.49-.08,0-.25.08-.33.08-.5-.08-.41-.33-.66-.66-.5-.25,0-.41.08-.58.25-.66.5-.58,1.33.17,1.66.5.25,1,.33,1.41.33,3.32.08,6.64,0,9.87-.91,6.22-1.83,11.95-4.73,17.09-8.71,4.4-3.48,8.46-7.38,12.2-11.53,5.39-5.97,10.12-12.53,14.44-19.41,2.74-4.56,5.31-9.21,7.97-13.86.17-.41.41-.75.75-1.33,1.16,1.66,2.66,1.83,4.31,1.58,1.16-.17,2.24-.58,3.32-1.08,1.24-.58,2.49-1.41,3.65-2.32,3.48-2.66,7.14-6.89,9.54-10.54,0,0,.41-.08,1.16-.33,5.06-1.58,9.87-3.82,14.52-6.39.58-.33,1.24-.75,1.83-1.08.33-.25.66-.5.91-.75.33-.25.5-.58.75-.91.17-.33.08-.66-.17-.75Z"/>
      <path class="cls-1" d="M693.05,81.31c-1.08,0-1.99.83-1.99,1.99-.08,1.16.83,2.07,1.99,2.07s2.07-.91,1.99-2.07c0-1.08-.91-1.99-1.99-1.99ZM728.65,14.19c-.41-.17-.83-.17-1.16.17-.33.33-.75.66-1,1.16-.75,1-1.49,2.07-2.16,3.15-2.49,4.15-5.06,8.3-7.55,12.53-2.99,5.14-5.89,10.29-8.71,15.52-1.99,3.65-3.82,7.38-5.72,11.03-2.49,4.98-4.65,10.04-6.8,15.18-.5,1.16-.91,2.32-1.33,3.57-.08.17-.17.41-.17.58-.08.33.08.5.33.66.25.08.58.08.75-.17.17-.17.33-.41.41-.58,1.08-2.07,2.24-4.15,3.15-6.39,2.16-4.98,4.4-9.96,6.89-14.77,6.39-12.2,13.19-24.14,20.83-35.59.5-.75,1-1.49,1.41-2.24.33-.58.66-1.16,1-1.83.17-.25.25-.66.33-.75,0-.66-.17-1-.5-1.24Z"/>
      <path class="cls-1" d="M306.97,83.88c-.15-.73-.92-1.1-1.68-.81-.77.37-1.45,1.62-1.38,2.43.08.74.54,1.25,1.22,1.4.69.07,1.3-.15,1.61-.88.23-.44.31-.88.38-1.18-.08-.44-.08-.73-.15-.96Z"/>
      <path class="cls-1" d="M671.97,33.74c-.54-.15-1.07,0-1.38.37-.38.44-.38.88-.15,1.4.15.22.38.44.77.81-.31.59-.61,1.18-.92,1.76-.77,1.18-1.53,2.43-2.3,3.6-.08.15-.23.29-.23.51-.08.07,0,.22.08.29.08.07.31.15.38.07.23-.22.54-.44.77-.73,1.07-1.47,2.14-3.01,3.21-4.56.54-.73.54-1.54.61-2.43,0-.51-.38-.96-.84-1.1Z"/>
    </g>
  </g>
</svg>